<svg viewBox="0 0 1080 1080" xmlns="http://www.w3.org/2000/svg">
  <!-- Background -->
  <rect width="1080" height="1080" fill="#f8f9fa"/>
  
  <!-- Central Node -->
  <circle cx="540" cy="540" r="100" fill="#2557a7"/>
  <text x="540" y="530" font-family="Arial" font-size="24" fill="white" text-anchor="middle">Critical Skills</text>
  <text x="540" y="560" font-family="Arial" font-size="24" fill="white" text-anchor="middle">2025</text>

  <!-- Skill Nodes -->
  <!-- Digital Marketing -->
  <circle cx="540" cy="240" r="80" fill="#4a90e2"/>
  <text x="540" y="230" font-family="Arial" font-size="20" fill="white" text-anchor="middle">Digital</text>
  <text x="540" y="260" font-family="Arial" font-size="20" fill="white" text-anchor="middle">Marketing</text>
  <line x1="540" y1="320" x2="540" y2="440" stroke="#4a90e2" stroke-width="4"/>

  <!-- Blockchain -->
  <circle cx="840" cy="540" r="80" fill="#50b83c"/>
  <text x="840" y="530" font-family="Arial" font-size="20" fill="white" text-anchor="middle">Blockchain</text>
  <text x="840" y="560" font-family="Arial" font-size="20" fill="white" text-anchor="middle">&amp; Web3</text>
  <line x1="640" y1="540" x2="760" y2="540" stroke="#50b83c" stroke-width="4"/>

  <!-- Content Creation -->
  <circle cx="540" cy="840" r="80" fill="#f5a623"/>
  <text x="540" y="830" font-family="Arial" font-size="20" fill="white" text-anchor="middle">Content</text>
  <text x="540" y="860" font-family="Arial" font-size="20" fill="white" text-anchor="middle">Creation</text>
  <line x1="540" y1="640" x2="540" y2="760" stroke="#f5a623" stroke-width="4"/>

  <!-- Sales & Negotiation -->
  <circle cx="240" cy="540" r="80" fill="#e2474b"/>
  <text x="240" y="530" font-family="Arial" font-size="20" fill="white" text-anchor="middle">Sales &amp;</text>
  <text x="240" y="560" font-family="Arial" font-size="20" fill="white" text-anchor="middle">Negotiation</text>
  <line x1="320" y1="540" x2="440" y2="540" stroke="#e2474b" stroke-width="4"/>

  <!-- AI & Automation -->
  <circle cx="690" cy="690" r="80" fill="#9013fe"/>
  <text x="690" y="680" font-family="Arial" font-size="20" fill="white" text-anchor="middle">AI &amp;</text>
  <text x="690" y="710" font-family="Arial" font-size="20" fill="white" text-anchor="middle">Automation</text>
  <line x1="608" y1="608" x2="640" y2="640" stroke="#9013fe" stroke-width="4"/>

  <!-- Title -->
  <text x="540" y="80" font-family="Arial" font-size="36" fill="#333" text-anchor="middle" font-weight="bold">Essential Skills for Digital Economy</text>

  <!-- Subtitle -->
  <text x="540" y="120" font-family="Arial" font-size="24" fill="#666" text-anchor="middle">Success Tools for 2025</text>
</svg>